<svg width="105" height="48" viewBox="0 0 105 48" fill="none" xmlns="http://www.w3.org/2000/svg">
<rect x="0.5" y="0.5" width="104" height="47" rx="23.5" stroke="white"/>
<path d="M25.818 30L25.818 18.696H30.048C30.876 18.696 31.563 18.834 32.109 19.11C32.655 19.38 33.063 19.74 33.333 20.19C33.603 20.634 33.738 21.12 33.738 21.648C33.738 22.296 33.558 22.86 33.198 23.34C32.844 23.814 32.31 24.138 31.596 24.312C32.058 24.384 32.463 24.549 32.811 24.807C33.165 25.059 33.441 25.371 33.639 25.743C33.837 26.109 33.936 26.502 33.936 26.922C33.936 27.306 33.87 27.681 33.738 28.047C33.612 28.413 33.399 28.743 33.099 29.037C32.799 29.331 32.4 29.565 31.902 29.739C31.404 29.913 30.786 30 30.048 30H25.818ZM27.222 28.776H30.03C30.888 28.776 31.503 28.596 31.875 28.236C32.253 27.876 32.442 27.414 32.442 26.85C32.442 26.28 32.238 25.824 31.83 25.482C31.422 25.134 30.822 24.96 30.03 24.96H27.222L27.222 28.776ZM27.222 19.902V23.754H29.994C30.696 23.754 31.254 23.583 31.668 23.241C32.088 22.893 32.298 22.404 32.298 21.774C32.298 21.186 32.094 20.727 31.686 20.397C31.284 20.067 30.726 19.902 30.012 19.902H27.222ZM42.8477 21.378H44.2517V30H42.8477V21.378ZM36.7457 21.378H38.1497V26.742C38.1497 27.462 38.3237 28.008 38.6717 28.38C39.0257 28.752 39.5297 28.938 40.1837 28.938C40.7237 28.938 41.1917 28.794 41.5877 28.506C41.9897 28.218 42.2987 27.822 42.5147 27.318C42.7367 26.808 42.8477 26.226 42.8477 25.572H43.3697C43.3697 26.538 43.2287 27.363 42.9467 28.047C42.6707 28.731 42.2777 29.256 41.7677 29.622C41.2637 29.982 40.6697 30.162 39.9857 30.162C39.3377 30.162 38.7707 30.042 38.2847 29.802C37.7987 29.562 37.4207 29.199 37.1507 28.713C36.8807 28.221 36.7457 27.6 36.7457 26.85V21.378ZM50.5421 30.216C50.0741 30.216 49.6541 30.126 49.2821 29.946C48.9101 29.766 48.6161 29.496 48.4001 29.136C48.1841 28.776 48.0761 28.326 48.0761 27.786V19.002H49.4621V27.75C49.4621 28.638 49.8761 29.082 50.7041 29.082C50.9501 29.082 51.1871 29.055 51.4151 29.001C51.6491 28.947 51.9101 28.866 52.1981 28.758L52.3961 29.766C52.0901 29.898 51.7841 30.006 51.4781 30.09C51.1781 30.174 50.8661 30.216 50.5421 30.216ZM46.6901 22.368V21.396L52.1801 21.396V22.368L46.6901 22.368ZM57.3097 30.216C56.8417 30.216 56.4217 30.126 56.0497 29.946C55.6777 29.766 55.3837 29.496 55.1677 29.136C54.9517 28.776 54.8437 28.326 54.8437 27.786V19.002H56.2297V27.75C56.2297 28.638 56.6437 29.082 57.4717 29.082C57.7177 29.082 57.9547 29.055 58.1827 29.001C58.4167 28.947 58.6777 28.866 58.9657 28.758L59.1637 29.766C58.8577 29.898 58.5517 30.006 58.2457 30.09C57.9457 30.174 57.6337 30.216 57.3097 30.216ZM53.4577 22.368V21.396H58.9477V22.368H53.4577ZM64.5453 30.216C63.7713 30.216 63.0813 30.045 62.4753 29.703C61.8753 29.361 61.4013 28.854 61.0533 28.182C60.7053 27.51 60.5313 26.682 60.5313 25.698C60.5313 24.708 60.7053 23.88 61.0533 23.214C61.4013 22.542 61.8753 22.035 62.4753 21.693C63.0813 21.351 63.7713 21.18 64.5453 21.18C65.3133 21.18 65.9973 21.351 66.5973 21.693C67.2033 22.035 67.6773 22.542 68.0193 23.214C68.3673 23.88 68.5413 24.708 68.5413 25.698C68.5413 26.682 68.3673 27.51 68.0193 28.182C67.6773 28.854 67.2033 29.361 66.5973 29.703C65.9973 30.045 65.3133 30.216 64.5453 30.216ZM64.5093 28.992C65.0673 28.992 65.5413 28.86 65.9313 28.596C66.3213 28.326 66.6153 27.945 66.8133 27.453C67.0173 26.961 67.1193 26.376 67.1193 25.698C67.1193 24.672 66.9063 23.865 66.4803 23.277C66.0543 22.683 65.4213 22.386 64.5813 22.386C64.0173 22.386 63.5403 22.521 63.1503 22.791C62.7663 23.055 62.4723 23.436 62.2683 23.934C62.0703 24.426 61.9713 25.014 61.9713 25.698C61.9713 26.712 62.1843 27.516 62.6103 28.11C63.0423 28.698 63.6753 28.992 64.5093 28.992ZM77.395 30V24.942C77.395 24.12 77.197 23.496 76.801 23.07C76.411 22.638 75.877 22.422 75.199 22.422C74.683 22.422 74.236 22.563 73.858 22.845C73.48 23.127 73.189 23.532 72.985 24.06C72.781 24.582 72.679 25.206 72.679 25.932H72.139C72.139 24.93 72.271 24.075 72.535 23.367C72.799 22.659 73.183 22.119 73.687 21.747C74.197 21.369 74.815 21.18 75.541 21.18C76.219 21.18 76.798 21.333 77.278 21.639C77.764 21.939 78.136 22.371 78.394 22.935C78.652 23.499 78.781 24.168 78.781 24.942V30H77.395ZM71.275 30V21.396H72.481L72.679 23.376V30H71.275Z" fill="white"/>
</svg>
