<?xml version="1.0" encoding="UTF-8"?>
<svg xmlns="http://www.w3.org/2000/svg" xmlns:xlink="http://www.w3.org/1999/xlink" width="56px" height="56px" viewBox="0 0 56 56" version="1.1">
<g id="surface1">
<path style=" stroke:none;fill-rule:evenodd;fill:rgb(100%,100%,100%);fill-opacity:1;" d="M 12.328125 25.984375 L 43.847656 25.984375 L 43.847656 17.054688 L 33.804688 17.054688 C 32.75 17.054688 31.285156 16.523438 30.589844 15.875 C 29.894531 15.222656 29.472656 14.050781 29.472656 13.070312 L 29.472656 3.566406 L 3.960938 3.566406 C 3.871094 3.566406 3.804688 3.605469 3.761719 3.648438 C 3.6875 3.691406 3.667969 3.75 3.667969 3.835938 L 3.667969 52.183594 C 3.667969 52.25 3.710938 52.332031 3.753906 52.371094 C 3.796875 52.433594 3.890625 52.453125 3.953125 52.453125 C 15.019531 52.453125 32.171875 52.453125 43.550781 52.453125 C 43.636719 52.453125 43.632812 52.410156 43.679688 52.371094 C 43.75 52.332031 43.839844 52.242188 43.839844 52.183594 L 43.839844 47.117188 L 12.328125 47.117188 C 10.316406 47.117188 8.65625 45.570312 8.65625 43.683594 L 8.65625 29.414062 C 8.65625 27.527344 10.308594 25.984375 12.328125 25.984375 Z M 14.566406 31.046875 L 20.714844 31.046875 C 22.054688 31.046875 23.054688 31.34375 23.71875 31.9375 C 24.386719 32.53125 24.722656 33.382812 24.722656 34.480469 C 24.722656 35.613281 24.355469 36.492188 23.628906 37.128906 C 22.902344 37.765625 21.792969 38.082031 20.300781 38.082031 L 18.273438 38.082031 L 18.273438 42.21875 L 14.566406 42.21875 Z M 18.273438 35.824219 L 19.183594 35.824219 C 19.902344 35.824219 20.402344 35.707031 20.695312 35.476562 C 20.984375 35.246094 21.125 34.949219 21.125 34.585938 C 21.125 34.234375 21 33.9375 20.746094 33.695312 C 20.496094 33.449219 20.023438 33.328125 19.328125 33.328125 L 18.269531 33.328125 L 18.269531 35.824219 Z M 26.132812 31.046875 L 29.828125 31.046875 L 29.828125 34.949219 L 33.867188 34.949219 L 33.867188 31.046875 L 37.574219 31.046875 L 37.574219 42.226562 L 33.867188 42.226562 L 33.867188 37.695312 L 29.828125 37.695312 L 29.828125 42.226562 L 26.132812 42.226562 Z M 39.484375 31.046875 L 45.628906 31.046875 C 46.96875 31.046875 47.96875 31.34375 48.636719 31.9375 C 49.300781 32.53125 49.636719 33.382812 49.636719 34.480469 C 49.636719 35.613281 49.273438 36.492188 48.542969 37.128906 C 47.816406 37.765625 46.707031 38.082031 45.214844 38.082031 L 43.191406 38.082031 L 43.191406 42.21875 L 39.484375 42.21875 Z M 43.191406 35.824219 L 44.097656 35.824219 C 44.816406 35.824219 45.316406 35.707031 45.609375 35.476562 C 45.902344 35.246094 46.042969 34.949219 46.042969 34.585938 C 46.042969 34.234375 45.914062 33.9375 45.664062 33.695312 C 45.410156 33.449219 44.9375 33.328125 44.246094 33.328125 L 43.183594 33.328125 L 43.183594 35.824219 Z M 47.503906 25.984375 L 52.328125 25.984375 C 54.347656 25.984375 56 27.53125 56 29.417969 L 56 43.6875 C 56 45.570312 54.34375 47.121094 52.328125 47.121094 L 47.503906 47.121094 L 47.503906 53.273438 C 47.503906 54.007812 47.1875 54.65625 46.679688 55.136719 C 46.164062 55.617188 45.46875 55.910156 44.6875 55.910156 C 30.386719 55.910156 17.195312 55.910156 2.824219 55.910156 C 2.039062 55.910156 1.34375 55.617188 0.832031 55.136719 C 0.316406 54.65625 0.00390625 54.007812 0.00390625 53.273438 L 0.00390625 2.753906 C 0.00390625 2.019531 0.320312 1.371094 0.832031 0.890625 C 1.34375 0.410156 2.058594 0.117188 2.824219 0.117188 L 31.347656 0.117188 C 31.410156 0.09375 31.476562 0.09375 31.546875 0.09375 C 31.855469 0.09375 32.171875 0.222656 32.394531 0.410156 L 32.441406 0.410156 C 32.484375 0.429688 32.507812 0.449219 32.550781 0.492188 L 47.121094 14.277344 C 47.367188 14.511719 47.546875 14.824219 47.546875 15.179688 C 47.546875 15.28125 47.523438 15.363281 47.503906 15.472656 Z M 32.800781 12.796875 L 32.800781 4.15625 L 43.210938 14.011719 L 34.097656 14.011719 C 33.738281 14.011719 33.425781 13.867188 33.179688 13.65625 C 32.953125 13.449219 32.800781 13.132812 32.800781 12.796875 Z M 32.800781 12.796875 "/>
</g>
</svg>
